<?xml version="1.0" encoding="UTF-8" standalone="no"?>
<svg xmlns:svg="http://www.w3.org/2000/svg"
xmlns="http://www.w3.org/2000/svg" version="1.1"
width="800.00" height="800.00">
<polyline points="
0.0000,0.0000 
12.5000,0.0000 
18.7500,10.8253 
12.5000,21.6506 
18.7500,32.4760 
31.2500,32.4760 
37.5000,21.6506 
31.2500,10.8253 
37.5000,0.0000 
50.0000,0.0000 
56.2500,10.8253 
68.7500,10.8253 
75.0000,0.0000 
87.5000,0.0000 
93.7500,10.8253 
87.5000,21.6506 
75.0000,21.6506 
68.7500,32.4760 
75.0000,43.3013 
68.7500,54.1266 
56.2500,54.1266 
50.0000,43.3013 
37.5000,43.3013 
31.2500,54.1266 
37.5000,64.9519 
50.0000,64.9519 
56.2500,75.7772 
50.0000,86.6025 
56.2500,97.4279 
68.7500,97.4279 
75.0000,86.6025 
87.5000,86.6025 
93.7500,97.4279 
87.5000,108.2532 
75.0000,108.2532 
68.7500,119.0785 
75.0000,129.9038 
87.5000,129.9038 
93.7500,140.7291 
87.5000,151.5544 
93.7500,162.3798 
106.2500,162.3798 
112.5000,151.5544 
106.2500,140.7291 
112.5000,129.9038 
125.0000,129.9038 
131.2500,119.0785 
125.0000,108.2532 
112.5000,108.2532 
106.2500,97.4279 
112.5000,86.6025 
125.0000,86.6025 
131.2500,97.4279 
143.7500,97.4279 
150.0000,86.6025 
143.7500,75.7772 
150.0000,64.9519 
162.5000,64.9519 
168.7500,54.1266 
162.5000,43.3013 
150.0000,43.3013 
143.7500,54.1266 
131.2500,54.1266 
125.0000,43.3013 
131.2500,32.4760 
125.0000,21.6506 
112.5000,21.6506 
106.2500,10.8253 
112.5000,-0.0000 
125.0000,-0.0000 
131.2500,10.8253 
143.7500,10.8253 
150.0000,-0.0000 
162.5000,-0.0000 
168.7500,10.8253 
162.5000,21.6506 
168.7500,32.4760 
181.2500,32.4760 
187.5000,21.6506 
181.2500,10.8253 
187.5000,0.0000 
200.0000,0.0000 
206.2500,10.8253 
218.7500,10.8253 
225.0000,-0.0000 
237.5000,-0.0000 
243.7500,10.8253 
237.5000,21.6506 
225.0000,21.6506 
218.7500,32.4760 
225.0000,43.3013 
237.5000,43.3013 
243.7500,54.1266 
237.5000,64.9519 
243.7500,75.7772 
256.2500,75.7772 
262.5000,64.9519 
256.2500,54.1266 
262.5000,43.3013 
275.0000,43.3013 
281.2500,32.4760 
275.0000,21.6506 
262.5000,21.6506 
256.2500,10.8253 
262.5000,-0.0000 
275.0000,-0.0000 
281.2500,10.8253 
293.7500,10.8253 
300.0000,-0.0000 
312.5000,-0.0000 
318.7500,10.8253 
312.5000,21.6506 
318.7500,32.4760 
331.2500,32.4760 
337.5000,21.6506 
331.2500,10.8253 
337.5000,-0.0000 
350.0000,-0.0000 
356.2500,10.8253 
368.7500,10.8253 
375.0000,-0.0000 
387.5000,-0.0000 
393.7500,10.8253 
387.5000,21.6506 
375.0000,21.6506 
368.7500,32.4760 
375.0000,43.3013 
368.7500,54.1266 
356.2500,54.1266 
350.0000,43.3013 
337.5000,43.3013 
331.2500,54.1266 
337.5000,64.9519 
350.0000,64.9519 
356.2500,75.7772 
350.0000,86.6025 
337.5000,86.6025 
331.2500,97.4279 
337.5000,108.2532 
331.2500,119.0785 
318.7500,119.0785 
312.5000,108.2532 
318.7500,97.4279 
312.5000,86.6025 
300.0000,86.6025 
293.7500,97.4279 
281.2500,97.4279 
275.0000,86.6025 
262.5000,86.6025 
256.2500,97.4279 
262.5000,108.2532 
275.0000,108.2532 
281.2500,119.0785 
275.0000,129.9038 
281.2500,140.7291 
293.7500,140.7291 
300.0000,129.9038 
312.5000,129.9038 
318.7500,140.7291 
312.5000,151.5544 
300.0000,151.5544 
293.7500,162.3798 
300.0000,173.2051 
293.7500,184.0304 
281.2500,184.0304 
275.0000,173.2051 
262.5000,173.2051 
256.2500,184.0304 
262.5000,194.8557 
275.0000,194.8557 
281.2500,205.6810 
275.0000,216.5064 
262.5000,216.5064 
256.2500,227.3317 
262.5000,238.1570 
256.2500,248.9823 
243.7500,248.9823 
237.5000,238.1570 
243.7500,227.3317 
237.5000,216.5064 
225.0000,216.5064 
218.7500,205.6810 
225.0000,194.8557 
237.5000,194.8557 
243.7500,184.0304 
237.5000,173.2051 
225.0000,173.2051 
218.7500,184.0304 
206.2500,184.0304 
200.0000,173.2051 
187.5000,173.2051 
181.2500,184.0304 
187.5000,194.8557 
181.2500,205.6810 
168.7500,205.6810 
162.5000,194.8557 
168.7500,184.0304 
162.5000,173.2051 
150.0000,173.2051 
143.7500,184.0304 
131.2500,184.0304 
125.0000,173.2051 
112.5000,173.2051 
106.2500,184.0304 
112.5000,194.8557 
125.0000,194.8557 
131.2500,205.6810 
125.0000,216.5064 
131.2500,227.3317 
143.7500,227.3317 
150.0000,216.5064 
162.5000,216.5064 
168.7500,227.3317 
162.5000,238.1570 
150.0000,238.1570 
143.7500,248.9823 
150.0000,259.8076 
162.5000,259.8076 
168.7500,270.6329 
162.5000,281.4583 
168.7500,292.2836 
181.2500,292.2836 
187.5000,281.4583 
181.2500,270.6329 
187.5000,259.8076 
200.0000,259.8076 
206.2500,270.6329 
218.7500,270.6329 
225.0000,259.8076 
237.5000,259.8076 
243.7500,270.6329 
237.5000,281.4583 
225.0000,281.4583 
218.7500,292.2836 
225.0000,303.1089 
218.7500,313.9342 
206.2500,313.9342 
200.0000,303.1089 
187.5000,303.1089 
181.2500,313.9342 
187.5000,324.7595 
200.0000,324.7595 
206.2500,335.5848 
200.0000,346.4102 
206.2500,357.2355 
218.7500,357.2355 
225.0000,346.4102 
237.5000,346.4102 
243.7500,357.2355 
237.5000,368.0608 
225.0000,368.0608 
218.7500,378.8861 
225.0000,389.7114 
237.5000,389.7114 
243.7500,400.5367 
237.5000,411.3621 
243.7500,422.1874 
256.2500,422.1874 
262.5000,411.3621 
256.2500,400.5367 
262.5000,389.7114 
275.0000,389.7114 
281.2500,378.8861 
275.0000,368.0608 
262.5000,368.0608 
256.2500,357.2355 
262.5000,346.4102 
275.0000,346.4102 
281.2500,357.2355 
293.7500,357.2355 
300.0000,346.4102 
312.5000,346.4102 
318.7500,357.2355 
312.5000,368.0608 
318.7500,378.8861 
331.2500,378.8861 
337.5000,368.0608 
331.2500,357.2355 
337.5000,346.4102 
350.0000,346.4102 
356.2500,357.2355 
368.7500,357.2355 
375.0000,346.4102 
387.5000,346.4102 
393.7500,357.2355 
387.5000,368.0608 
375.0000,368.0608 
368.7500,378.8861 
375.0000,389.7114 
368.7500,400.5367 
356.2500,400.5367 
350.0000,389.7114 
337.5000,389.7114 
331.2500,400.5367 
337.5000,411.3621 
350.0000,411.3621 
356.2500,422.1874 
350.0000,433.0127 
337.5000,433.0127 
331.2500,443.8380 
337.5000,454.6633 
331.2500,465.4887 
318.7500,465.4887 
312.5000,454.6633 
318.7500,443.8380 
312.5000,433.0127 
300.0000,433.0127 
293.7500,443.8380 
281.2500,443.8380 
275.0000,433.0127 
262.5000,433.0127 
256.2500,443.8380 
262.5000,454.6633 
275.0000,454.6633 
281.2500,465.4887 
275.0000,476.3140 
281.2500,487.1393 
293.7500,487.1393 
300.0000,476.3140 
312.5000,476.3140 
318.7500,487.1393 
312.5000,497.9646 
300.0000,497.9646 
293.7500,508.7899 
300.0000,519.6152 
312.5000,519.6152 
318.7500,530.4406 
312.5000,541.2659 
318.7500,552.0912 
331.2500,552.0912 
337.5000,541.2659 
331.2500,530.4406 
337.5000,519.6152 
350.0000,519.6152 
356.2500,530.4406 
368.7500,530.4406 
375.0000,519.6152 
387.5000,519.6152 
393.7500,530.4406 
387.5000,541.2659 
375.0000,541.2659 
368.7500,552.0912 
375.0000,562.9165 
368.7500,573.7418 
356.2500,573.7418 
350.0000,562.9165 
337.5000,562.9165 
331.2500,573.7418 
337.5000,584.5671 
350.0000,584.5671 
356.2500,595.3925 
350.0000,606.2178 
356.2500,617.0431 
368.7500,617.0431 
375.0000,606.2178 
387.5000,606.2178 
393.7500,617.0431 
387.5000,627.8684 
375.0000,627.8684 
368.7500,638.6937 
375.0000,649.5191 
387.5000,649.5191 
393.7500,660.3444 
387.5000,671.1697 
393.7500,681.9950 
406.2500,681.9950 
412.5000,671.1697 
406.2500,660.3444 
412.5000,649.5191 
425.0000,649.5191 
431.2500,638.6937 
425.0000,627.8684 
412.5000,627.8684 
406.2500,617.0431 
412.5000,606.2178 
425.0000,606.2178 
431.2500,617.0431 
443.7500,617.0431 
450.0000,606.2178 
443.7500,595.3925 
450.0000,584.5671 
462.5000,584.5671 
468.7500,573.7418 
462.5000,562.9165 
450.0000,562.9165 
443.7500,573.7418 
431.2500,573.7418 
425.0000,562.9165 
431.2500,552.0912 
425.0000,541.2659 
412.5000,541.2659 
406.2500,530.4406 
412.5000,519.6152 
425.0000,519.6152 
431.2500,530.4406 
443.7500,530.4406 
450.0000,519.6152 
462.5000,519.6152 
468.7500,530.4406 
462.5000,541.2659 
468.7500,552.0912 
481.2500,552.0912 
487.5000,541.2659 
481.2500,530.4406 
487.5000,519.6152 
500.0000,519.6152 
506.2500,508.7899 
500.0000,497.9646 
487.5000,497.9646 
481.2500,487.1393 
487.5000,476.3140 
500.0000,476.3140 
506.2500,487.1393 
518.7500,487.1393 
525.0000,476.3140 
518.7500,465.4887 
525.0000,454.6633 
537.5000,454.6633 
543.7500,443.8380 
537.5000,433.0127 
525.0000,433.0127 
518.7500,443.8380 
506.2500,443.8380 
500.0000,433.0127 
487.5000,433.0127 
481.2500,443.8380 
487.5000,454.6633 
481.2500,465.4887 
468.7500,465.4887 
462.5000,454.6633 
468.7500,443.8380 
462.5000,433.0127 
450.0000,433.0127 
443.7500,422.1874 
450.0000,411.3621 
462.5000,411.3621 
468.7500,400.5367 
462.5000,389.7114 
450.0000,389.7114 
443.7500,400.5367 
431.2500,400.5367 
425.0000,389.7114 
431.2500,378.8861 
425.0000,368.0608 
412.5000,368.0608 
406.2500,357.2355 
412.5000,346.4102 
425.0000,346.4102 
431.2500,357.2355 
443.7500,357.2355 
450.0000,346.4102 
462.5000,346.4102 
468.7500,357.2355 
462.5000,368.0608 
468.7500,378.8861 
481.2500,378.8861 
487.5000,368.0608 
481.2500,357.2355 
487.5000,346.4102 
500.0000,346.4102 
506.2500,357.2355 
518.7500,357.2355 
525.0000,346.4102 
537.5000,346.4102 
543.7500,357.2355 
537.5000,368.0608 
525.0000,368.0608 
518.7500,378.8861 
525.0000,389.7114 
537.5000,389.7114 
543.7500,400.5367 
537.5000,411.3621 
543.7500,422.1874 
556.2500,422.1874 
562.5000,411.3621 
556.2500,400.5367 
562.5000,389.7114 
575.0000,389.7114 
581.2500,378.8861 
575.0000,368.0608 
562.5000,368.0608 
556.2500,357.2355 
562.5000,346.4102 
575.0000,346.4102 
581.2500,357.2355 
593.7500,357.2355 
600.0000,346.4102 
593.7500,335.5848 
600.0000,324.7595 
612.5000,324.7595 
618.7500,313.9342 
612.5000,303.1089 
600.0000,303.1089 
593.7500,313.9342 
581.2500,313.9342 
575.0000,303.1089 
581.2500,292.2836 
575.0000,281.4583 
562.5000,281.4583 
556.2500,270.6329 
562.5000,259.8076 
575.0000,259.8076 
581.2500,270.6329 
593.7500,270.6329 
600.0000,259.8076 
612.5000,259.8076 
618.7500,270.6329 
612.5000,281.4583 
618.7500,292.2836 
631.2500,292.2836 
637.5000,281.4583 
631.2500,270.6329 
637.5000,259.8076 
650.0000,259.8076 
656.2500,248.9823 
650.0000,238.1570 
637.5000,238.1570 
631.2500,227.3317 
637.5000,216.5064 
650.0000,216.5064 
656.2500,227.3317 
668.7500,227.3317 
675.0000,216.5064 
668.7500,205.6810 
675.0000,194.8557 
687.5000,194.8557 
693.7500,184.0304 
687.5000,173.2051 
675.0000,173.2051 
668.7500,184.0304 
656.2500,184.0304 
650.0000,173.2051 
637.5000,173.2051 
631.2500,184.0304 
637.5000,194.8557 
631.2500,205.6810 
618.7500,205.6810 
612.5000,194.8557 
618.7500,184.0304 
612.5000,173.2051 
600.0000,173.2051 
593.7500,184.0304 
581.2500,184.0304 
575.0000,173.2051 
562.5000,173.2051 
556.2500,184.0304 
562.5000,194.8557 
575.0000,194.8557 
581.2500,205.6810 
575.0000,216.5064 
562.5000,216.5064 
556.2500,227.3317 
562.5000,238.1570 
556.2500,248.9823 
543.7500,248.9823 
537.5000,238.1570 
543.7500,227.3317 
537.5000,216.5064 
525.0000,216.5064 
518.7500,205.6810 
525.0000,194.8557 
537.5000,194.8557 
543.7500,184.0304 
537.5000,173.2051 
525.0000,173.2051 
518.7500,184.0304 
506.2500,184.0304 
500.0000,173.2051 
506.2500,162.3798 
500.0000,151.5544 
487.5000,151.5544 
481.2500,140.7291 
487.5000,129.9038 
500.0000,129.9038 
506.2500,140.7291 
518.7500,140.7291 
525.0000,129.9038 
518.7500,119.0785 
525.0000,108.2532 
537.5000,108.2532 
543.7500,97.4279 
537.5000,86.6025 
525.0000,86.6025 
518.7500,97.4279 
506.2500,97.4279 
500.0000,86.6025 
487.5000,86.6025 
481.2500,97.4279 
487.5000,108.2532 
481.2500,119.0785 
468.7500,119.0785 
462.5000,108.2532 
468.7500,97.4279 
462.5000,86.6025 
450.0000,86.6025 
443.7500,75.7772 
450.0000,64.9519 
462.5000,64.9519 
468.7500,54.1266 
462.5000,43.3013 
450.0000,43.3013 
443.7500,54.1266 
431.2500,54.1266 
425.0000,43.3013 
431.2500,32.4760 
425.0000,21.6506 
412.5000,21.6506 
406.2500,10.8253 
412.5000,0.0000 
425.0000,0.0000 
431.2500,10.8253 
443.7500,10.8253 
450.0000,0.0000 
462.5000,0.0000 
468.7500,10.8253 
462.5000,21.6506 
468.7500,32.4760 
481.2500,32.4760 
487.5000,21.6506 
481.2500,10.8253 
487.5000,0.0000 
500.0000,0.0000 
506.2500,10.8253 
518.7500,10.8253 
525.0000,0.0000 
537.5000,0.0000 
543.7500,10.8253 
537.5000,21.6506 
525.0000,21.6506 
518.7500,32.4760 
525.0000,43.3013 
537.5000,43.3013 
543.7500,54.1266 
537.5000,64.9519 
543.7500,75.7772 
556.2500,75.7772 
562.5000,64.9519 
556.2500,54.1266 
562.5000,43.3013 
575.0000,43.3013 
581.2500,32.4760 
575.0000,21.6506 
562.5000,21.6506 
556.2500,10.8253 
562.5000,0.0000 
575.0000,0.0000 
581.2500,10.8253 
593.7500,10.8253 
600.0000,0.0000 
612.5000,0.0000 
618.7500,10.8253 
612.5000,21.6506 
618.7500,32.4760 
631.2500,32.4760 
637.5000,21.6506 
631.2500,10.8253 
637.5000,0.0000 
650.0000,0.0000 
656.2500,10.8253 
668.7500,10.8253 
675.0000,0.0000 
687.5000,0.0000 
693.7500,10.8253 
687.5000,21.6506 
675.0000,21.6506 
668.7500,32.4760 
675.0000,43.3013 
668.7500,54.1266 
656.2500,54.1266 
650.0000,43.3013 
637.5000,43.3013 
631.2500,54.1266 
637.5000,64.9519 
650.0000,64.9519 
656.2500,75.7772 
650.0000,86.6025 
656.2500,97.4279 
668.7500,97.4279 
675.0000,86.6025 
687.5000,86.6025 
693.7500,97.4279 
687.5000,108.2532 
675.0000,108.2532 
668.7500,119.0785 
675.0000,129.9038 
687.5000,129.9038 
693.7500,140.7291 
687.5000,151.5544 
693.7500,162.3798 
706.2500,162.3798 
712.5000,151.5544 
706.2500,140.7291 
712.5000,129.9038 
725.0000,129.9038 
731.2500,119.0785 
725.0000,108.2532 
712.5000,108.2532 
706.2500,97.4279 
712.5000,86.6025 
725.0000,86.6025 
731.2500,97.4279 
743.7500,97.4279 
750.0000,86.6025 
743.7500,75.7772 
750.0000,64.9519 
762.5000,64.9519 
768.7500,54.1266 
762.5000,43.3013 
750.0000,43.3013 
743.7500,54.1266 
731.2500,54.1266 
725.0000,43.3013 
731.2500,32.4760 
725.0000,21.6506 
712.5000,21.6506 
706.2500,10.8253 
712.5000,0.0000 
725.0000,0.0000 
731.2500,10.8253 
743.7500,10.8253 
750.0000,0.0000 
762.5000,0.0000 
768.7500,10.8253 
762.5000,21.6506 
768.7500,32.4760 
781.2500,32.4760 
787.5000,21.6506 
781.2500,10.8253 
787.5000,0.0000 
800.0000,0.0000 "
 style="fill:none;stroke:red;stroke-width:2.0833" />
<polyline points="
0.0000,0.0000 
12.5000,0.0000 
18.7500,10.8253 
12.5000,21.6506 
18.7500,32.4760 
31.2500,32.4760 
37.5000,21.6506 
31.2500,10.8253 
37.5000,0.0000 
50.0000,0.0000 
56.2500,10.8253 
68.7500,10.8253 
75.0000,0.0000 
87.5000,0.0000 
93.7500,10.8253 
87.5000,21.6506 
75.0000,21.6506 
68.7500,32.4760 
75.0000,43.3013 
68.7500,54.1266 
56.2500,54.1266 
50.0000,43.3013 
37.5000,43.3013 
31.2500,54.1266 
37.5000,64.9519 
50.0000,64.9519 
56.2500,75.7772 
50.0000,86.6025 
56.2500,97.4279 
68.7500,97.4279 
75.0000,86.6025 
87.5000,86.6025 
93.7500,97.4279 
87.5000,108.2532 
75.0000,108.2532 
68.7500,119.0785 
75.0000,129.9038 
87.5000,129.9038 
93.7500,140.7291 
87.5000,151.5544 
93.7500,162.3798 
106.2500,162.3798 
112.5000,151.5544 
106.2500,140.7291 
112.5000,129.9038 
125.0000,129.9038 
131.2500,119.0785 
125.0000,108.2532 
112.5000,108.2532 
106.2500,97.4279 
112.5000,86.6025 
125.0000,86.6025 
131.2500,97.4279 
143.7500,97.4279 
150.0000,86.6025 
143.7500,75.7772 
150.0000,64.9519 
162.5000,64.9519 
168.7500,54.1266 
162.5000,43.3013 
150.0000,43.3013 
143.7500,54.1266 
131.2500,54.1266 
125.0000,43.3013 
131.2500,32.4760 
125.0000,21.6506 
112.5000,21.6506 
106.2500,10.8253 
112.5000,-0.0000 
125.0000,-0.0000 
131.2500,10.8253 
143.7500,10.8253 
150.0000,-0.0000 
162.5000,-0.0000 
168.7500,10.8253 
162.5000,21.6506 
168.7500,32.4760 
181.2500,32.4760 
187.5000,21.6506 
181.2500,10.8253 
187.5000,0.0000 
200.0000,0.0000 
206.2500,10.8253 
218.7500,10.8253 
225.0000,-0.0000 
237.5000,-0.0000 
243.7500,10.8253 
237.5000,21.6506 
225.0000,21.6506 
218.7500,32.4760 
225.0000,43.3013 
237.5000,43.3013 
243.7500,54.1266 
237.5000,64.9519 
243.7500,75.7772 
256.2500,75.7772 
262.5000,64.9519 
256.2500,54.1266 
262.5000,43.3013 
275.0000,43.3013 
281.2500,32.4760 
275.0000,21.6506 
262.5000,21.6506 
256.2500,10.8253 
262.5000,-0.0000 
275.0000,-0.0000 
281.2500,10.8253 
293.7500,10.8253 
300.0000,-0.0000 
312.5000,-0.0000 
318.7500,10.8253 
312.5000,21.6506 
318.7500,32.4760 
331.2500,32.4760 
337.5000,21.6506 
331.2500,10.8253 
337.5000,-0.0000 
350.0000,-0.0000 
356.2500,10.8253 
368.7500,10.8253 
375.0000,-0.0000 
387.5000,-0.0000 
393.7500,10.8253 
387.5000,21.6506 
375.0000,21.6506 
368.7500,32.4760 
375.0000,43.3013 
368.7500,54.1266 
356.2500,54.1266 
350.0000,43.3013 
337.5000,43.3013 
331.2500,54.1266 
337.5000,64.9519 
350.0000,64.9519 
356.2500,75.7772 
350.0000,86.6025 
337.5000,86.6025 
331.2500,97.4279 
337.5000,108.2532 
331.2500,119.0785 
318.7500,119.0785 
312.5000,108.2532 
318.7500,97.4279 
312.5000,86.6025 
300.0000,86.6025 
293.7500,97.4279 
281.2500,97.4279 
275.0000,86.6025 
262.5000,86.6025 
256.2500,97.4279 
262.5000,108.2532 
275.0000,108.2532 
281.2500,119.0785 
275.0000,129.9038 
281.2500,140.7291 
293.7500,140.7291 
300.0000,129.9038 
312.5000,129.9038 
318.7500,140.7291 
312.5000,151.5544 
300.0000,151.5544 
293.7500,162.3798 
300.0000,173.2051 
293.7500,184.0304 
281.2500,184.0304 
275.0000,173.2051 
262.5000,173.2051 
256.2500,184.0304 
262.5000,194.8557 
275.0000,194.8557 
281.2500,205.6810 
275.0000,216.5064 
262.5000,216.5064 
256.2500,227.3317 
262.5000,238.1570 
256.2500,248.9823 
243.7500,248.9823 
237.5000,238.1570 
243.7500,227.3317 
237.5000,216.5064 
225.0000,216.5064 
218.7500,205.6810 
225.0000,194.8557 
237.5000,194.8557 
243.7500,184.0304 
237.5000,173.2051 
225.0000,173.2051 
218.7500,184.0304 
206.2500,184.0304 
200.0000,173.2051 
187.5000,173.2051 
181.2500,184.0304 
187.5000,194.8557 
181.2500,205.6810 
168.7500,205.6810 
162.5000,194.8557 
168.7500,184.0304 
162.5000,173.2051 
150.0000,173.2051 
143.7500,184.0304 
131.2500,184.0304 
125.0000,173.2051 
112.5000,173.2051 
106.2500,184.0304 
112.5000,194.8557 
125.0000,194.8557 
131.2500,205.6810 
125.0000,216.5064 
131.2500,227.3317 
143.7500,227.3317 
150.0000,216.5064 
162.5000,216.5064 
168.7500,227.3317 
162.5000,238.1570 
150.0000,238.1570 
143.7500,248.9823 
150.0000,259.8076 
162.5000,259.8076 
168.7500,270.6329 
162.5000,281.4583 
168.7500,292.2836 
181.2500,292.2836 
187.5000,281.4583 
181.2500,270.6329 
187.5000,259.8076 
200.0000,259.8076 
206.2500,270.6329 
218.7500,270.6329 
225.0000,259.8076 
237.5000,259.8076 
243.7500,270.6329 
237.5000,281.4583 
225.0000,281.4583 
218.7500,292.2836 
225.0000,303.1089 
218.7500,313.9342 
206.2500,313.9342 
200.0000,303.1089 
187.5000,303.1089 
181.2500,313.9342 
187.5000,324.7595 
200.0000,324.7595 
206.2500,335.5848 
200.0000,346.4102 
206.2500,357.2355 
218.7500,357.2355 
225.0000,346.4102 
237.5000,346.4102 
243.7500,357.2355 
237.5000,368.0608 
225.0000,368.0608 
218.7500,378.8861 
225.0000,389.7114 
237.5000,389.7114 
243.7500,400.5367 
237.5000,411.3621 
243.7500,422.1874 
256.2500,422.1874 
262.5000,411.3621 
256.2500,400.5367 
262.5000,389.7114 
275.0000,389.7114 
281.2500,378.8861 
275.0000,368.0608 
262.5000,368.0608 
256.2500,357.2355 
262.5000,346.4102 
275.0000,346.4102 
281.2500,357.2355 
293.7500,357.2355 
300.0000,346.4102 
312.5000,346.4102 
318.7500,357.2355 
312.5000,368.0608 
318.7500,378.8861 
331.2500,378.8861 
337.5000,368.0608 
331.2500,357.2355 
337.5000,346.4102 
350.0000,346.4102 
356.2500,357.2355 
368.7500,357.2355 
375.0000,346.4102 
387.5000,346.4102 
393.7500,357.2355 
387.5000,368.0608 
375.0000,368.0608 
368.7500,378.8861 
375.0000,389.7114 
368.7500,400.5367 
356.2500,400.5367 
350.0000,389.7114 
337.5000,389.7114 
331.2500,400.5367 
337.5000,411.3621 
350.0000,411.3621 
356.2500,422.1874 
350.0000,433.0127 
337.5000,433.0127 
331.2500,443.8380 
337.5000,454.6633 
331.2500,465.4887 
318.7500,465.4887 
312.5000,454.6633 
318.7500,443.8380 
312.5000,433.0127 
300.0000,433.0127 
293.7500,443.8380 
281.2500,443.8380 
275.0000,433.0127 
262.5000,433.0127 
256.2500,443.8380 
262.5000,454.6633 
275.0000,454.6633 
281.2500,465.4887 
275.0000,476.3140 
281.2500,487.1393 
293.7500,487.1393 
300.0000,476.3140 
312.5000,476.3140 
318.7500,487.1393 
312.5000,497.9646 
300.0000,497.9646 
293.7500,508.7899 
300.0000,519.6152 
312.5000,519.6152 
318.7500,530.4406 
312.5000,541.2659 
318.7500,552.0912 
331.2500,552.0912 
337.5000,541.2659 
331.2500,530.4406 
337.5000,519.6152 
350.0000,519.6152 
356.2500,530.4406 
368.7500,530.4406 
375.0000,519.6152 
387.5000,519.6152 
393.7500,530.4406 
387.5000,541.2659 
375.0000,541.2659 
368.7500,552.0912 
375.0000,562.9165 
368.7500,573.7418 
356.2500,573.7418 
350.0000,562.9165 
337.5000,562.9165 
331.2500,573.7418 
337.5000,584.5671 
350.0000,584.5671 
356.2500,595.3925 
350.0000,606.2178 
356.2500,617.0431 
368.7500,617.0431 
375.0000,606.2178 
387.5000,606.2178 
393.7500,617.0431 
387.5000,627.8684 
375.0000,627.8684 
368.7500,638.6937 
375.0000,649.5191 
387.5000,649.5191 
393.7500,660.3444 
387.5000,671.1697 
393.7500,681.9950 
406.2500,681.9950 
412.5000,671.1697 
406.2500,660.3444 
412.5000,649.5191 
425.0000,649.5191 
431.2500,638.6937 
425.0000,627.8684 
412.5000,627.8684 
406.2500,617.0431 
412.5000,606.2178 
425.0000,606.2178 
431.2500,617.0431 
443.7500,617.0431 
450.0000,606.2178 
443.7500,595.3925 
450.0000,584.5671 
462.5000,584.5671 
468.7500,573.7418 
462.5000,562.9165 
450.0000,562.9165 
443.7500,573.7418 
431.2500,573.7418 
425.0000,562.9165 
431.2500,552.0912 
425.0000,541.2659 
412.5000,541.2659 
406.2500,530.4406 
412.5000,519.6152 
425.0000,519.6152 
431.2500,530.4406 
443.7500,530.4406 
450.0000,519.6152 
462.5000,519.6152 
468.7500,530.4406 
462.5000,541.2659 
468.7500,552.0912 
481.2500,552.0912 
487.5000,541.2659 
481.2500,530.4406 
487.5000,519.6152 
500.0000,519.6152 
506.2500,508.7899 
500.0000,497.9646 
487.5000,497.9646 
481.2500,487.1393 
487.5000,476.3140 
500.0000,476.3140 
506.2500,487.1393 
518.7500,487.1393 
525.0000,476.3140 
518.7500,465.4887 
525.0000,454.6633 
537.5000,454.6633 
543.7500,443.8380 
537.5000,433.0127 
525.0000,433.0127 
518.7500,443.8380 
506.2500,443.8380 
500.0000,433.0127 
487.5000,433.0127 
481.2500,443.8380 
487.5000,454.6633 
481.2500,465.4887 
468.7500,465.4887 
462.5000,454.6633 
468.7500,443.8380 
462.5000,433.0127 
450.0000,433.0127 
443.7500,422.1874 
450.0000,411.3621 
462.5000,411.3621 
468.7500,400.5367 
462.5000,389.7114 
450.0000,389.7114 
443.7500,400.5367 
431.2500,400.5367 
425.0000,389.7114 
431.2500,378.8861 
425.0000,368.0608 
412.5000,368.0608 
406.2500,357.2355 
412.5000,346.4102 
425.0000,346.4102 
431.2500,357.2355 
443.7500,357.2355 
450.0000,346.4102 
462.5000,346.4102 
468.7500,357.2355 
462.5000,368.0608 
468.7500,378.8861 
481.2500,378.8861 
487.5000,368.0608 
481.2500,357.2355 
487.5000,346.4102 
500.0000,346.4102 
506.2500,357.2355 
518.7500,357.2355 
525.0000,346.4102 
537.5000,346.4102 
543.7500,357.2355 
537.5000,368.0608 
525.0000,368.0608 
518.7500,378.8861 
525.0000,389.7114 
537.5000,389.7114 
543.7500,400.5367 
537.5000,411.3621 
543.7500,422.1874 
556.2500,422.1874 
562.5000,411.3621 
556.2500,400.5367 
562.5000,389.7114 
575.0000,389.7114 
581.2500,378.8861 
575.0000,368.0608 
562.5000,368.0608 
556.2500,357.2355 
562.5000,346.4102 
575.0000,346.4102 
581.2500,357.2355 
593.7500,357.2355 
600.0000,346.4102 
593.7500,335.5848 
600.0000,324.7595 
612.5000,324.7595 
618.7500,313.9342 
612.5000,303.1089 
600.0000,303.1089 
593.7500,313.9342 
581.2500,313.9342 
575.0000,303.1089 
581.2500,292.2836 
575.0000,281.4583 
562.5000,281.4583 
556.2500,270.6329 
562.5000,259.8076 
575.0000,259.8076 
581.2500,270.6329 
593.7500,270.6329 
600.0000,259.8076 
612.5000,259.8076 
618.7500,270.6329 
612.5000,281.4583 
618.7500,292.2836 
631.2500,292.2836 
637.5000,281.4583 
631.2500,270.6329 
637.5000,259.8076 
650.0000,259.8076 
656.2500,248.9823 
650.0000,238.1570 
637.5000,238.1570 
631.2500,227.3317 
637.5000,216.5064 
650.0000,216.5064 
656.2500,227.3317 
668.7500,227.3317 
675.0000,216.5064 
668.7500,205.6810 
675.0000,194.8557 
687.5000,194.8557 
693.7500,184.0304 
687.5000,173.2051 
675.0000,173.2051 
668.7500,184.0304 
656.2500,184.0304 
650.0000,173.2051 
637.5000,173.2051 
631.2500,184.0304 
637.5000,194.8557 
631.2500,205.6810 
618.7500,205.6810 
612.5000,194.8557 
618.7500,184.0304 
612.5000,173.2051 
600.0000,173.2051 
593.7500,184.0304 
581.2500,184.0304 
575.0000,173.2051 
562.5000,173.2051 
556.2500,184.0304 
562.5000,194.8557 
575.0000,194.8557 
581.2500,205.6810 
575.0000,216.5064 
562.5000,216.5064 
556.2500,227.3317 
562.5000,238.1570 
556.2500,248.9823 
543.7500,248.9823 
537.5000,238.1570 
543.7500,227.3317 
537.5000,216.5064 
525.0000,216.5064 
518.7500,205.6810 
525.0000,194.8557 
537.5000,194.8557 
543.7500,184.0304 
537.5000,173.2051 
525.0000,173.2051 
518.7500,184.0304 
506.2500,184.0304 
500.0000,173.2051 
506.2500,162.3798 
500.0000,151.5544 
487.5000,151.5544 
481.2500,140.7291 
487.5000,129.9038 
500.0000,129.9038 
506.2500,140.7291 
518.7500,140.7291 
525.0000,129.9038 
518.7500,119.0785 
525.0000,108.2532 
537.5000,108.2532 
543.7500,97.4279 
537.5000,86.6025 
525.0000,86.6025 
518.7500,97.4279 
506.2500,97.4279 
500.0000,86.6025 
487.5000,86.6025 
481.2500,97.4279 
487.5000,108.2532 
481.2500,119.0785 
468.7500,119.0785 
462.5000,108.2532 
468.7500,97.4279 
462.5000,86.6025 
450.0000,86.6025 
443.7500,75.7772 
450.0000,64.9519 
462.5000,64.9519 
468.7500,54.1266 
462.5000,43.3013 
450.0000,43.3013 
443.7500,54.1266 
431.2500,54.1266 
425.0000,43.3013 
431.2500,32.4760 
425.0000,21.6506 
412.5000,21.6506 
406.2500,10.8253 
412.5000,0.0000 
425.0000,0.0000 
431.2500,10.8253 
443.7500,10.8253 
450.0000,0.0000 
462.5000,0.0000 
468.7500,10.8253 
462.5000,21.6506 
468.7500,32.4760 
481.2500,32.4760 
487.5000,21.6506 
481.2500,10.8253 
487.5000,0.0000 
500.0000,0.0000 
506.2500,10.8253 
518.7500,10.8253 
525.0000,0.0000 
537.5000,0.0000 
543.7500,10.8253 
537.5000,21.6506 
525.0000,21.6506 
518.7500,32.4760 
525.0000,43.3013 
537.5000,43.3013 
543.7500,54.1266 
537.5000,64.9519 
543.7500,75.7772 
556.2500,75.7772 
562.5000,64.9519 
556.2500,54.1266 
562.5000,43.3013 
575.0000,43.3013 
581.2500,32.4760 
575.0000,21.6506 
562.5000,21.6506 
556.2500,10.8253 
562.5000,0.0000 
575.0000,0.0000 
581.2500,10.8253 
593.7500,10.8253 
600.0000,0.0000 
612.5000,0.0000 
618.7500,10.8253 
612.5000,21.6506 
618.7500,32.4760 
631.2500,32.4760 
637.5000,21.6506 
631.2500,10.8253 
637.5000,0.0000 
650.0000,0.0000 
656.2500,10.8253 
668.7500,10.8253 
675.0000,0.0000 
687.5000,0.0000 
693.7500,10.8253 
687.5000,21.6506 
675.0000,21.6506 
668.7500,32.4760 
675.0000,43.3013 
668.7500,54.1266 
656.2500,54.1266 
650.0000,43.3013 
637.5000,43.3013 
631.2500,54.1266 
637.5000,64.9519 
650.0000,64.9519 
656.2500,75.7772 
650.0000,86.6025 
656.2500,97.4279 
668.7500,97.4279 
675.0000,86.6025 
687.5000,86.6025 
693.7500,97.4279 
687.5000,108.2532 
675.0000,108.2532 
668.7500,119.0785 
675.0000,129.9038 
687.5000,129.9038 
693.7500,140.7291 
687.5000,151.5544 
693.7500,162.3798 
706.2500,162.3798 
712.5000,151.5544 
706.2500,140.7291 
712.5000,129.9038 
725.0000,129.9038 
731.2500,119.0785 
725.0000,108.2532 
712.5000,108.2532 
706.2500,97.4279 
712.5000,86.6025 
725.0000,86.6025 
731.2500,97.4279 
743.7500,97.4279 
750.0000,86.6025 
743.7500,75.7772 
750.0000,64.9519 
762.5000,64.9519 
768.7500,54.1266 
762.5000,43.3013 
750.0000,43.3013 
743.7500,54.1266 
731.2500,54.1266 
725.0000,43.3013 
731.2500,32.4760 
725.0000,21.6506 
712.5000,21.6506 
706.2500,10.8253 
712.5000,0.0000 
725.0000,0.0000 
731.2500,10.8253 
743.7500,10.8253 
750.0000,0.0000 
762.5000,0.0000 
768.7500,10.8253 
762.5000,21.6506 
768.7500,32.4760 
781.2500,32.4760 
787.5000,21.6506 
781.2500,10.8253 
787.5000,0.0000 
800.0000,0.0000 "
 style="fill:none; stroke:black; stroke-dasharray:12.500000,12.500000; stroke-dashoffset:6.250000; stroke-width:2.0833" />
</svg>
