<?xml version="1.0" encoding="UTF-8" standalone="no"?>
<svg>
<text text-anchor="middle" x="30" y="20">1</text>
<text text-anchor="middle" x="60" y="20">2</text>
<text text-anchor="middle" x="90" y="20">3</text>
<text text-anchor="middle" x="120" y="20">4</text>
<text text-anchor="middle" x="150" y="20">5</text>
<text text-anchor="middle" x="180" y="20">6</text>
<text text-anchor="middle" x="210" y="20">7</text>
<text text-anchor="middle" x="240" y="20">8</text>
<text text-anchor="middle" x="270" y="20">9</text>
<text text-anchor="middle" x="300" y="20">10</text>
<text text-anchor="middle" x="330" y="20">11</text>
<text text-anchor="middle" x="360" y="20">12</text>
<text text-anchor="middle" x="30" y="50">13</text>
<text text-anchor="middle" x="60" y="50">14</text>
<text text-anchor="middle" x="90" y="50">15</text>
<text text-anchor="middle" x="120" y="50">16</text>
<text text-anchor="middle" x="150" y="50">17</text>
<text text-anchor="middle" x="180" y="50">18</text>
<text text-anchor="middle" x="210" y="50">19</text>
<text text-anchor="middle" x="240" y="50">20</text>
<text text-anchor="middle" x="270" y="50">21</text>
<text text-anchor="middle" x="300" y="50">22</text>
<text text-anchor="middle" x="330" y="50">23</text>
<text text-anchor="middle" x="360" y="50">24</text>
<text text-anchor="middle" x="30" y="80">25</text>
<text text-anchor="middle" x="60" y="80">26</text>
<text text-anchor="middle" x="90" y="80">27</text>
<text text-anchor="middle" x="120" y="80">28</text>
<text text-anchor="middle" x="150" y="80">29</text>
<text text-anchor="middle" x="180" y="80">30</text>
<text text-anchor="middle" x="210" y="80">31</text>
<text text-anchor="middle" x="240" y="80">32</text>
<text text-anchor="middle" x="270" y="80">33</text>
<text text-anchor="middle" x="300" y="80">34</text>
<text text-anchor="middle" x="330" y="80">35</text>
<text text-anchor="middle" x="360" y="80">36</text>
<text text-anchor="middle" x="30" y="110">37</text>
<text text-anchor="middle" x="60" y="110">38</text>
<text text-anchor="middle" x="90" y="110">39</text>
<text text-anchor="middle" x="120" y="110">40</text>
<text text-anchor="middle" x="150" y="110">41</text>
<text text-anchor="middle" x="180" y="110">42</text>
<text text-anchor="middle" x="210" y="110">43</text>
<text text-anchor="middle" x="240" y="110">44</text>
<text text-anchor="middle" x="270" y="110">45</text>
<text text-anchor="middle" x="300" y="110">46</text>
<text text-anchor="middle" x="330" y="110">47</text>
<text text-anchor="middle" x="360" y="110">48</text>
<text text-anchor="middle" x="30" y="140">49</text>
<text text-anchor="middle" x="60" y="140">50</text>
<text text-anchor="middle" x="90" y="140">51</text>
<text text-anchor="middle" x="120" y="140">52</text>
<text text-anchor="middle" x="150" y="140">53</text>
<text text-anchor="middle" x="180" y="140">54</text>
<text text-anchor="middle" x="210" y="140">55</text>
<text text-anchor="middle" x="240" y="140">56</text>
<text text-anchor="middle" x="270" y="140">57</text>
<text text-anchor="middle" x="300" y="140">58</text>
<text text-anchor="middle" x="330" y="140">59</text>
<text text-anchor="middle" x="360" y="140">60</text>
<text text-anchor="middle" x="30" y="170">61</text>
<text text-anchor="middle" x="60" y="170">62</text>
<text text-anchor="middle" x="90" y="170">63</text>
<text text-anchor="middle" x="120" y="170">64</text>
<text text-anchor="middle" x="150" y="170">65</text>
<text text-anchor="middle" x="180" y="170">66</text>
<text text-anchor="middle" x="210" y="170">67</text>
<text text-anchor="middle" x="240" y="170">68</text>
<text text-anchor="middle" x="270" y="170">69</text>
<text text-anchor="middle" x="300" y="170">70</text>
<text text-anchor="middle" x="330" y="170">71</text>
<text text-anchor="middle" x="360" y="170">72</text>
<text text-anchor="middle" x="30" y="200">73</text>
<text text-anchor="middle" x="60" y="200">74</text>
<text text-anchor="middle" x="90" y="200">75</text>
<text text-anchor="middle" x="120" y="200">76</text>
<text text-anchor="middle" x="150" y="200">77</text>
<text text-anchor="middle" x="180" y="200">78</text>
<text text-anchor="middle" x="210" y="200">79</text>
<text text-anchor="middle" x="240" y="200">80</text>
<text text-anchor="middle" x="270" y="200">81</text>
<text text-anchor="middle" x="300" y="200">82</text>
<text text-anchor="middle" x="330" y="200">83</text>
<text text-anchor="middle" x="360" y="200">84</text>
<text text-anchor="middle" x="30" y="230">85</text>
<text text-anchor="middle" x="60" y="230">86</text>
<text text-anchor="middle" x="90" y="230">87</text>
<text text-anchor="middle" x="120" y="230">88</text>
<text text-anchor="middle" x="150" y="230">89</text>
<text text-anchor="middle" x="180" y="230">90</text>
<text text-anchor="middle" x="210" y="230">91</text>
<text text-anchor="middle" x="240" y="230">92</text>
<text text-anchor="middle" x="270" y="230">93</text>
<text text-anchor="middle" x="300" y="230">94</text>
<text text-anchor="middle" x="330" y="230">95</text>
<text text-anchor="middle" x="360" y="230">96</text>
<text text-anchor="middle" x="30" y="260">97</text>
<text text-anchor="middle" x="60" y="260">98</text>
<text text-anchor="middle" x="90" y="260">99</text>
<text text-anchor="middle" x="120" y="260">100</text>
<text text-anchor="middle" x="150" y="260">101</text>
<text text-anchor="middle" x="180" y="260">102</text>
<text text-anchor="middle" x="210" y="260">103</text>
<text text-anchor="middle" x="240" y="260">104</text>
<text text-anchor="middle" x="270" y="260">105</text>
<text text-anchor="middle" x="300" y="260">106</text>
<text text-anchor="middle" x="330" y="260">107</text>
<text text-anchor="middle" x="360" y="260">108</text>
<text text-anchor="middle" x="30" y="290">109</text>
<text text-anchor="middle" x="60" y="290">110</text>
<text text-anchor="middle" x="90" y="290">111</text>
<text text-anchor="middle" x="120" y="290">112</text>
<text text-anchor="middle" x="150" y="290">113</text>
<text text-anchor="middle" x="180" y="290">114</text>
<text text-anchor="middle" x="210" y="290">115</text>
<text text-anchor="middle" x="240" y="290">116</text>
<text text-anchor="middle" x="270" y="290">117</text>
<text text-anchor="middle" x="300" y="290">118</text>
<text text-anchor="middle" x="330" y="290">119</text>
<text text-anchor="middle" x="360" y="290">120</text>
<text text-anchor="middle" x="30" y="320">121</text>
<text text-anchor="middle" x="60" y="320">122</text>
<text text-anchor="middle" x="90" y="320">123</text>
<text text-anchor="middle" x="120" y="320">124</text>
<text text-anchor="middle" x="150" y="320">125</text>
<text text-anchor="middle" x="180" y="320">126</text>
<text text-anchor="middle" x="210" y="320">127</text>
<text text-anchor="middle" x="240" y="320">128</text>
<text text-anchor="middle" x="270" y="320">129</text>
<text text-anchor="middle" x="300" y="320">130</text>
<text text-anchor="middle" x="330" y="320">131</text>
<text text-anchor="middle" x="360" y="320">132</text>
<text text-anchor="middle" x="30" y="350">133</text>
<text text-anchor="middle" x="60" y="350">134</text>
<text text-anchor="middle" x="90" y="350">135</text>
<text text-anchor="middle" x="120" y="350">136</text>
<text text-anchor="middle" x="150" y="350">137</text>
<text text-anchor="middle" x="180" y="350">138</text>
<text text-anchor="middle" x="210" y="350">139</text>
<text text-anchor="middle" x="240" y="350">140</text>
<text text-anchor="middle" x="270" y="350">141</text>
<text text-anchor="middle" x="300" y="350">142</text>
<text text-anchor="middle" x="330" y="350">143</text>
<text text-anchor="middle" x="360" y="350">144</text>
</svg>
