<?xml version="1.0" encoding="UTF-8" standalone="no"?>
<svg
   xmlns:dc="http://purl.org/dc/elements/1.1/"
   xmlns:cc="http://creativecommons.org/ns#"
   xmlns:rdf="http://www.w3.org/1999/02/22-rdf-syntax-ns#"
   xmlns:svg="http://www.w3.org/2000/svg"
   xmlns="http://www.w3.org/2000/svg"
   xmlns:sodipodi="http://sodipodi.sourceforge.net/DTD/sodipodi-0.dtd"
   xmlns:inkscape="http://www.inkscape.org/namespaces/inkscape"
   id="svg9342"
   version="1.1"
   inkscape:version="0.48.4 r9939"
   width="100%"
   height="100%"
   sodipodi:docname="Sieve.svg">
  <metadata
     id="metadata9636">
    <rdf:RDF>
      <cc:Work
         rdf:about="">
        <dc:format>image/svg+xml</dc:format>
        <dc:type
           rdf:resource="http://purl.org/dc/dcmitype/StillImage" />
      </cc:Work>
    </rdf:RDF>
  </metadata>
  <defs
     id="defs9634" />
  <sodipodi:namedview
     pagecolor="#ffffff"
     bordercolor="#666666"
     borderopacity="1"
     objecttolerance="10"
     gridtolerance="10"
     guidetolerance="10"
     inkscape:pageopacity="0"
     inkscape:pageshadow="2"
     inkscape:window-width="1534"
     inkscape:window-height="867"
     id="namedview9632"
     showgrid="false"
     inkscape:snap-object-midpoints="true"
     inkscape:snap-bbox="true"
     inkscape:snap-bbox-edge-midpoints="false"
     inkscape:object-paths="false"
     inkscape:object-nodes="true"
     inkscape:snap-bbox-midpoints="false"
     inkscape:snap-global="true"
     inkscape:zoom="1.3860435"
     inkscape:cx="207.34269"
     inkscape:cy="857.92807"
     inkscape:window-x="1600"
     inkscape:window-y="0"
     inkscape:window-maximized="0"
     inkscape:current-layer="svg9342" />
  <text
     text-anchor="middle"
     x="30"
     y="20"
     id="text9344"
     style="fill:#ff0000">1</text>
  <text
     text-anchor="middle"
     x="60"
     y="20"
     id="text9346"
     style="fill:#ff0000">2</text>
  <text
     text-anchor="middle"
     x="90"
     y="20"
     id="text9348"
     style="fill:#ff0000">3</text>
  <text
     text-anchor="middle"
     x="120"
     y="20"
     id="text9350">4</text>
  <text
     text-anchor="middle"
     x="150"
     y="20"
     id="text9352"
     style="fill:#ff0000">5</text>
  <text
     text-anchor="middle"
     x="180"
     y="20"
     id="text9354">6</text>
  <text
     text-anchor="middle"
     x="210"
     y="20"
     id="text9356"
     style="fill:#ff0000">7</text>
  <text
     text-anchor="middle"
     x="240"
     y="20"
     id="text9358">8</text>
  <text
     text-anchor="middle"
     x="270"
     y="20"
     id="text9360">9</text>
  <text
     text-anchor="middle"
     x="300"
     y="20"
     id="text9362">10</text>
  <text
     text-anchor="middle"
     x="330"
     y="20"
     id="text9364"
     style="fill:#ff0000">11</text>
  <text
     text-anchor="middle"
     x="360"
     y="20"
     id="text9366">12</text>
  <text
     text-anchor="middle"
     x="30"
     y="50"
     id="text9368"
     style="fill:#ff0000">13</text>
  <text
     text-anchor="middle"
     x="60"
     y="50"
     id="text9370">14</text>
  <text
     text-anchor="middle"
     x="90"
     y="50"
     id="text9372">15</text>
  <text
     text-anchor="middle"
     x="120"
     y="50"
     id="text9374">16</text>
  <text
     text-anchor="middle"
     x="150"
     y="50"
     id="text9376"
     style="fill:#ff0000">17</text>
  <text
     text-anchor="middle"
     x="180"
     y="50"
     id="text9378">18</text>
  <text
     text-anchor="middle"
     x="210"
     y="50"
     id="text9380"
     style="fill:#ff0000">19</text>
  <text
     text-anchor="middle"
     x="240"
     y="50"
     id="text9382">20</text>
  <text
     text-anchor="middle"
     x="270"
     y="50"
     id="text9384">21</text>
  <text
     text-anchor="middle"
     x="300"
     y="50"
     id="text9386">22</text>
  <text
     text-anchor="middle"
     x="330"
     y="50"
     id="text9388"
     style="fill:#ff0000">23</text>
  <text
     text-anchor="middle"
     x="360"
     y="50"
     id="text9390">24</text>
  <text
     text-anchor="middle"
     x="30"
     y="80"
     id="text9392">25</text>
  <text
     text-anchor="middle"
     x="60"
     y="80"
     id="text9394">26</text>
  <text
     text-anchor="middle"
     x="90"
     y="80"
     id="text9396"
     style="fill:#ff0000">27</text>
  <text
     text-anchor="middle"
     x="120"
     y="80"
     id="text9398">28</text>
  <text
     text-anchor="middle"
     x="150"
     y="80"
     id="text9400"
     style="fill:#ff0000">29</text>
  <text
     text-anchor="middle"
     x="180"
     y="80"
     id="text9402">30</text>
  <text
     text-anchor="middle"
     x="210"
     y="80"
     id="text9404"
     style="fill:#ff0000">31</text>
  <text
     text-anchor="middle"
     x="240"
     y="80"
     id="text9406">32</text>
  <text
     text-anchor="middle"
     x="270"
     y="80"
     id="text9408">33</text>
  <text
     text-anchor="middle"
     x="300"
     y="80"
     id="text9410">34</text>
  <text
     text-anchor="middle"
     x="330"
     y="80"
     id="text9412">35</text>
  <text
     text-anchor="middle"
     x="360"
     y="80"
     id="text9414">36</text>
  <text
     text-anchor="middle"
     x="30"
     y="110"
     id="text9416"
     style="fill:#ff0000">37</text>
  <text
     text-anchor="middle"
     x="60"
     y="110"
     id="text9418"
     style="fill:#ff00ff">38</text>
  <text
     text-anchor="middle"
     x="90"
     y="110"
     id="text9420">39</text>
  <text
     text-anchor="middle"
     x="120"
     y="110"
     id="text9422">40</text>
  <text
     text-anchor="middle"
     x="150"
     y="110"
     id="text9424"
     style="fill:#ff0000">41</text>
  <text
     text-anchor="middle"
     x="180"
     y="110"
     id="text9426">42</text>
  <text
     text-anchor="middle"
     x="210"
     y="110"
     id="text9428"
     style="fill:#ff0000">43</text>
  <text
     text-anchor="middle"
     x="240"
     y="110"
     id="text9430">44</text>
  <text
     text-anchor="middle"
     x="270"
     y="110"
     id="text9432">45</text>
  <text
     text-anchor="middle"
     x="300"
     y="110"
     id="text9434">46</text>
  <text
     text-anchor="middle"
     x="330"
     y="110"
     id="text9436"
     style="fill:#ff0000">47</text>
  <text
     text-anchor="middle"
     x="360"
     y="110"
     id="text9438">48</text>
  <text
     text-anchor="middle"
     x="30"
     y="140"
     id="text9440">49</text>
  <text
     text-anchor="middle"
     x="60"
     y="140"
     id="text9442">50</text>
  <text
     text-anchor="middle"
     x="90"
     y="140"
     id="text9444">51</text>
  <text
     text-anchor="middle"
     x="120"
     y="140"
     id="text9446">52</text>
  <text
     text-anchor="middle"
     x="150"
     y="140"
     id="text9448"
     style="fill:#ff0000">53</text>
  <text
     text-anchor="middle"
     x="180"
     y="140"
     id="text9450">54</text>
  <text
     text-anchor="middle"
     x="210"
     y="140"
     id="text9452">55</text>
  <text
     text-anchor="middle"
     x="240"
     y="140"
     id="text9454">56</text>
  <text
     text-anchor="middle"
     x="270"
     y="140"
     id="text9456"
     style="fill:#000000">57</text>
  <text
     text-anchor="middle"
     x="300"
     y="140"
     id="text9458">58</text>
  <text
     text-anchor="middle"
     x="330"
     y="140"
     id="text9460"
     style="fill:#ff0000">59</text>
  <text
     text-anchor="middle"
     x="360"
     y="140"
     id="text9462">60</text>
  <text
     text-anchor="middle"
     x="30"
     y="170"
     id="text9464"
     style="fill:#ff0000">61</text>
  <text
     text-anchor="middle"
     x="60"
     y="170"
     id="text9466">62</text>
  <text
     text-anchor="middle"
     x="90"
     y="170"
     id="text9468">63</text>
  <text
     text-anchor="middle"
     x="120"
     y="170"
     id="text9470">64</text>
  <text
     text-anchor="middle"
     x="150"
     y="170"
     id="text9472">65</text>
  <text
     text-anchor="middle"
     x="180"
     y="170"
     id="text9474">66</text>
  <text
     text-anchor="middle"
     x="210"
     y="170"
     id="text9476"
     style="fill:#ff0000">67</text>
  <text
     text-anchor="middle"
     x="240"
     y="170"
     id="text9478">68</text>
  <text
     text-anchor="middle"
     x="270"
     y="170"
     id="text9480">69</text>
  <text
     text-anchor="middle"
     x="300"
     y="170"
     id="text9482">70</text>
  <text
     text-anchor="middle"
     x="330"
     y="170"
     id="text9484">71</text>
  <text
     text-anchor="middle"
     x="360"
     y="170"
     id="text9486">72</text>
  <text
     text-anchor="middle"
     x="30"
     y="200"
     id="text9488">73</text>
  <text
     text-anchor="middle"
     x="60"
     y="200"
     id="text9490">74</text>
  <text
     text-anchor="middle"
     x="90"
     y="200"
     id="text9492">75</text>
  <text
     text-anchor="middle"
     x="120"
     y="200"
     id="text9494"
     style="fill:#000000">76</text>
  <text
     text-anchor="middle"
     x="150"
     y="200"
     id="text9496">77</text>
  <text
     text-anchor="middle"
     x="180"
     y="200"
     id="text9498">78</text>
  <text
     text-anchor="middle"
     x="210"
     y="200"
     id="text9500">79</text>
  <text
     text-anchor="middle"
     x="240"
     y="200"
     id="text9502">80</text>
  <text
     text-anchor="middle"
     x="270"
     y="200"
     id="text9504">81</text>
  <text
     text-anchor="middle"
     x="300"
     y="200"
     id="text9506">82</text>
  <text
     text-anchor="middle"
     x="330"
     y="200"
     id="text9508">83</text>
  <text
     text-anchor="middle"
     x="360"
     y="200"
     id="text9510">84</text>
  <text
     text-anchor="middle"
     x="30"
     y="230"
     id="text9512">85</text>
  <text
     text-anchor="middle"
     x="60"
     y="230"
     id="text9514">86</text>
  <text
     text-anchor="middle"
     x="90"
     y="230"
     id="text9516">87</text>
  <text
     text-anchor="middle"
     x="120"
     y="230"
     id="text9518">88</text>
  <text
     text-anchor="middle"
     x="150"
     y="230"
     id="text9520">89</text>
  <text
     text-anchor="middle"
     x="180"
     y="230"
     id="text9522">90</text>
  <text
     text-anchor="middle"
     x="210"
     y="230"
     id="text9524">91</text>
  <text
     text-anchor="middle"
     x="240"
     y="230"
     id="text9526">92</text>
  <text
     text-anchor="middle"
     x="270"
     y="230"
     id="text9528">93</text>
  <text
     text-anchor="middle"
     x="300"
     y="230"
     id="text9530">94</text>
  <text
     text-anchor="middle"
     x="330"
     y="230"
     id="text9532"
     style="fill:#ff00ff">95</text>
  <text
     text-anchor="middle"
     x="360"
     y="230"
     id="text9534">96</text>
  <text
     text-anchor="middle"
     x="30"
     y="260"
     id="text9536">97</text>
  <text
     text-anchor="middle"
     x="60"
     y="260"
     id="text9538">98</text>
  <text
     text-anchor="middle"
     x="90"
     y="260"
     id="text9540">99</text>
  <text
     text-anchor="middle"
     x="120"
     y="260"
     id="text9542">100</text>
  <text
     text-anchor="middle"
     x="150"
     y="260"
     id="text9544">101</text>
  <text
     text-anchor="middle"
     x="180"
     y="260"
     id="text9546">102</text>
  <text
     text-anchor="middle"
     x="210"
     y="260"
     id="text9548">103</text>
  <text
     text-anchor="middle"
     x="240"
     y="260"
     id="text9550">104</text>
  <text
     text-anchor="middle"
     x="270"
     y="260"
     id="text9552">105</text>
  <text
     text-anchor="middle"
     x="300"
     y="260"
     id="text9554">106</text>
  <text
     text-anchor="middle"
     x="330"
     y="260"
     id="text9556">107</text>
  <text
     text-anchor="middle"
     x="360"
     y="260"
     id="text9558">108</text>
  <text
     text-anchor="middle"
     x="30"
     y="290"
     id="text9560">109</text>
  <text
     text-anchor="middle"
     x="60"
     y="290"
     id="text9562">110</text>
  <text
     text-anchor="middle"
     x="90"
     y="290"
     id="text9564">111</text>
  <text
     text-anchor="middle"
     x="120"
     y="290"
     id="text9566">112</text>
  <text
     text-anchor="middle"
     x="150"
     y="290"
     id="text9568">113</text>
  <text
     text-anchor="middle"
     x="180"
     y="290"
     id="text9570"
     style="fill:#000000">114</text>
  <text
     text-anchor="middle"
     x="210"
     y="290"
     id="text9572">115</text>
  <text
     text-anchor="middle"
     x="240"
     y="290"
     id="text9574">116</text>
  <text
     text-anchor="middle"
     x="270"
     y="290"
     id="text9576">117</text>
  <text
     text-anchor="middle"
     x="300"
     y="290"
     id="text9578">118</text>
  <text
     text-anchor="middle"
     x="330"
     y="290"
     id="text9580">119</text>
  <text
     text-anchor="middle"
     x="360"
     y="290"
     id="text9582">120</text>
  <text
     text-anchor="middle"
     x="30"
     y="320"
     id="text9584">121</text>
  <text
     text-anchor="middle"
     x="60"
     y="320"
     id="text9586">122</text>
  <text
     text-anchor="middle"
     x="90"
     y="320"
     id="text9588">123</text>
  <text
     text-anchor="middle"
     x="120"
     y="320"
     id="text9590">124</text>
  <text
     text-anchor="middle"
     x="150"
     y="320"
     id="text9592">125</text>
  <text
     text-anchor="middle"
     x="180"
     y="320"
     id="text9594">126</text>
  <text
     text-anchor="middle"
     x="210"
     y="320"
     id="text9596">127</text>
  <text
     text-anchor="middle"
     x="240"
     y="320"
     id="text9598">128</text>
  <text
     text-anchor="middle"
     x="270"
     y="320"
     id="text9600">129</text>
  <text
     text-anchor="middle"
     x="300"
     y="320"
     id="text9602">130</text>
  <text
     text-anchor="middle"
     x="330"
     y="320"
     id="text9604">131</text>
  <text
     text-anchor="middle"
     x="360"
     y="320"
     id="text9606">132</text>
  <text
     text-anchor="middle"
     x="30"
     y="350"
     id="text9608"
     style="fill:#000000">133</text>
  <text
     text-anchor="middle"
     x="60"
     y="350"
     id="text9610">134</text>
  <text
     text-anchor="middle"
     x="90"
     y="350"
     id="text9612">135</text>
  <text
     text-anchor="middle"
     x="120"
     y="350"
     id="text9614">136</text>
  <text
     text-anchor="middle"
     x="150"
     y="350"
     id="text9616">137</text>
  <text
     text-anchor="middle"
     x="180"
     y="350"
     id="text9618">138</text>
  <text
     text-anchor="middle"
     x="210"
     y="350"
     id="text9620">139</text>
  <text
     text-anchor="middle"
     x="240"
     y="350"
     id="text9622">140</text>
  <text
     text-anchor="middle"
     x="270"
     y="350"
     id="text9624">141</text>
  <text
     text-anchor="middle"
     x="300"
     y="350"
     id="text9626">142</text>
  <text
     text-anchor="middle"
     x="330"
     y="350"
     id="text9628">143</text>
  <text
     text-anchor="middle"
     x="360"
     y="350"
     id="text9630">144</text>
  <path
     id="path9638-2-3-8-7-4"
     style="opacity:0.50000000000000000;fill:none;stroke:#0000ff;stroke-width:10;stroke-linecap:butt;stroke-linejoin:miter;stroke-miterlimit:4;stroke-opacity:1;stroke-dasharray:none"
     d="m 358.76546,9.7447826 0,339.7607174 M 299.55041,9.7447826 l 0,339.7607174 M 239.68465,9.7447826 l 0,339.7607174 M 181.12032,9.7447826 l 0,339.7607174 M 119.95313,9.7448052 l 0,339.7607248 M 60,40.822873 60,350" />
  <path
     id="path9638-20-1-5-4"
     style="opacity:0.5;fill:none;stroke:#00ff00;stroke-width:10;stroke-linecap:butt;stroke-linejoin:miter;stroke-miterlimit:4;stroke-opacity:1;stroke-dasharray:none"
     d="m 358.02736,10.239283 0,339.760717 M 269.53015,10.239283 269.53015,350 m -88.49721,-339.760712 0,339.760722"
     inkscape:connector-curvature="0" />
  <path
     id="path9638-20-7-6-9-2"
     style="opacity:0.50000000000000000;fill:none;stroke:#ff0000;stroke-width:10;stroke-linecap:butt;stroke-linejoin:miter;stroke-miterlimit:4;stroke-opacity:1;stroke-dasharray:none"
     d="m 49.751497,291.12425 22.59752,-11.29876 m 40.440033,-20.22002 18.90516,-9.45258 m 36.79603,-18.39801 22.80945,-11.40472 M 232,200 l 18.64488,-9.32244 m 41.22088,-20.61044 18.1243,-9.06215 m 41.74146,-20.87073 18.84285,-9.42143 m -139.64748,219.82376 23.0849,-11.54246 m 34.35774,-17.17887 23.0562,-11.52811 m 39.04289,-19.52144 19.58518,-9.79259 M 79.751497,351.12425 101.56817,340.21592 m 39.04288,-19.52145 23.68602,-11.84301 m 36.70032,-18.35015 18.74058,-9.3703 m 40.34432,-20.17215 21.34344,-10.67173 m 40.08403,-20.04201 19.3249,-9.66245 M 342,70 319.40248,81.298762 m -40.44003,20.220018 -18.90516,9.45258 m -36.79603,18.39801 -22.80945,11.40472 m -40.70031,20.35016 -18.64488,9.32244 m -41.220882,20.61044 -18.1243,9.06215 m -41.741456,20.87073 -18.842855,9.42143 M 102,40 80.325768,50.837117 M 41.282881,70.358561 21.697702,80.151151 M 312,10 290.18333,20.908334 m -39.04288,19.521443 -23.68602,11.843009 m -36.70032,18.350157 -18.74058,9.370293 m -40.34432,20.172154 -21.34344,10.67173 m -40.084033,20.04201 -19.324896,9.66245" />
  <path
     inkscape:connector-curvature="0"
     id="path9638-20-7-6-9-2-9"
     style="opacity:0.5;fill:none;stroke:#00ffff;stroke-width:10;stroke-linecap:butt;stroke-linejoin:miter;stroke-miterlimit:4;stroke-opacity:1;stroke-dasharray:none"
     d="m 249.43107,348.83976 -18.90516,-9.45258 m -36.79603,-18.39801 -22.80945,-11.40472 m -40.70031,-20.35016 -18.64488,-9.32244 m -41.220884,-20.61044 -18.1243,-9.06215 m -11.5197,99.24015 -19.3249,-9.66245 m -1.16534,-210.58267 22.59752,11.29876 m 40.440033,20.22002 18.905161,9.45258 m 36.79603,18.39801 22.80945,11.40472 m 40.70031,20.35016 18.64488,9.32244 m 41.22088,20.61044 18.1243,9.06215 m 41.74146,20.87073 18.84285,9.42143 M 259.7515,39.999983 281.42573,50.8371 m 39.04289,19.521444 19.58518,9.79259 M 50.220116,39.932863 72.036789,50.841197 m 39.042881,19.521443 23.68602,11.843009 m 36.70032,18.350161 18.74058,9.37029 m 40.34432,20.17215 21.34344,10.67173 m 40.08403,20.04201 17.36129,8.68065 m 41.90603,20.95301 14.71762,7.35881"
     sodipodi:nodetypes="cccccccccccccccccccccccccccccccccccccc" />
  <path
     id="path9638-20-1-5-4-1"
     style="opacity:0.5;fill:none;stroke:#ff00ff;stroke-width:10;stroke-linecap:butt;stroke-linejoin:miter;stroke-miterlimit:4;stroke-opacity:1;stroke-dasharray:none"
     d="M 308.27777,37.310909 24.758124,320.83055"
     inkscape:connector-curvature="0"
     sodipodi:nodetypes="cc" />
  <path
     id="path9638-20-1-5-4-1-8"
     style="opacity:0.5;fill:none;stroke:#ffff00;stroke-width:10;stroke-linecap:butt;stroke-linejoin:miter;stroke-miterlimit:4;stroke-opacity:1;stroke-dasharray:none"
     d="M 53.454612,69.228149 336.97426,352.74779"
     inkscape:connector-curvature="0"
     sodipodi:nodetypes="cc" />
  <path
     id="path9638-20-1-5-4-1-3"
     style="opacity:0.5;fill:none;stroke:#0000ff;stroke-width:10;stroke-linecap:butt;stroke-linejoin:miter;stroke-miterlimit:4;stroke-opacity:1;stroke-dasharray:none"
     d="m 340.38641,288.07728 -19.7838,-3.95676 M 190.08424,258.01685 167.9349,253.58698 M 38.292498,227.6585 20.239278,224.04786"
     inkscape:connector-curvature="0"
     sodipodi:nodetypes="cccccc" />
  <path
     id="path9638-20-1-5-4-1-3-0"
     style="opacity:0.5;fill:none;stroke:#0000ff;stroke-width:10;stroke-linecap:butt;stroke-linejoin:miter;stroke-miterlimit:4;stroke-opacity:1;stroke-dasharray:none"
     d="m 309.90249,76.843036 -19.7838,-3.95676 M 251.3511,168.46627 229.20176,164.0364 M 99.559361,138.10792 81.506143,134.49728"
     inkscape:connector-curvature="0"
     sodipodi:nodetypes="cccccc" />
  <path
     id="path9638-20-1-5-4-1-3-0-2"
     style="opacity:0.5;fill:none;stroke:#0000ff;stroke-width:10;stroke-linecap:butt;stroke-linejoin:miter;stroke-miterlimit:4;stroke-opacity:1;stroke-dasharray:none"
     d="m 130.46604,347.40273 -19.7838,-3.95676"
     inkscape:connector-curvature="0"
     sodipodi:nodetypes="cc" />
  <path
     id="path9638-20-1-5-4-1-8-2"
     style="opacity:0.5;fill:none;stroke:#00ff00;stroke-width:10;stroke-linecap:butt;stroke-linejoin:miter;stroke-miterlimit:4;stroke-opacity:1;stroke-dasharray:none"
     d="M 24.41115,336.61673 36,354 m 227.53272,-226.70092 11.11221,16.66831 m 49.75465,74.63198 10.30339,15.45508"
     inkscape:connector-curvature="0"
     sodipodi:nodetypes="cccccc" />
  <path
     id="path9638-20-1-5-4-1-8-2-3"
     style="opacity:0.5;fill:none;stroke:#00ff00;stroke-width:10;stroke-linecap:butt;stroke-linejoin:miter;stroke-miterlimit:4;stroke-opacity:1;stroke-dasharray:none"
     d="m 54.544002,97.81601 11.58885,17.38327 m 48.152888,72.22934 11.11222,16.66831 m 49.75465,74.63198 10.30339,15.45508"
     inkscape:connector-curvature="0"
     sodipodi:nodetypes="cccccc" />
  <path
     inkscape:connector-curvature="0"
     id="path9638-20-7-6-9-2-0"
     style="opacity:0.5;fill:none;stroke:#ff0000;stroke-width:10;stroke-linecap:butt;stroke-linejoin:miter;stroke-miterlimit:4;stroke-opacity:1;stroke-dasharray:none"
     d="m 303.08406,98.206603 -9.45258,18.905157 m -18.39802,36.79603 -11.40472,22.80945 m -20.35016,40.70031 -9.32244,18.64488 m -20.61044,41.22087 -9.06215,18.1243 m -20.87073,41.74146 -9.42143,18.84286"
     sodipodi:nodetypes="cccccccccc" />
  <path
     id="path9638-20-1-5-4-1-8-2-3-7-4"
     style="opacity:0.5;fill:none;stroke:#00ffff;stroke-width:10;stroke-linecap:butt;stroke-linejoin:miter;stroke-miterlimit:4;stroke-opacity:1;stroke-dasharray:none"
     d="M 97.640028,351.19431 82.184948,340.89092 M 368.55293,262.16976 351.16966,250.58091 m -72.22934,-48.15288 -16.66831,-11.11222 m -74.63198,-49.75466 -15.45508,-10.30339"
     inkscape:connector-curvature="0"
     sodipodi:nodetypes="cccccccc" />
  <path
     id="path9638-20-1-5-4-1-8-2-3-7-4-1-8"
     style="opacity:0.5;fill:none;stroke:#00ffff;stroke-width:10;stroke-linecap:butt;stroke-linejoin:miter;stroke-miterlimit:4;stroke-opacity:1;stroke-dasharray:none"
     d="m 247.93319,289.17327 -18.10901,-7.2436 M 97.657289,229.06292 80.956167,222.38247 M 310,140 290.58025,132.2321" />
  <path
     id="path9638-20-1-5-4-1-1"
     style="opacity:0.5;fill:none;stroke:#ff00ff;stroke-width:10;stroke-linecap:butt;stroke-linejoin:miter;stroke-miterlimit:4;stroke-opacity:1;stroke-dasharray:none"
     d="m 264.80957,215.02392 8.42717,21.06793"
     inkscape:connector-curvature="0"
     sodipodi:nodetypes="cc" />
  <path
     id="path9638-20-1-5-4-1-1-1"
     style="opacity:0.5;fill:none;stroke:#ff00ff;stroke-width:10;stroke-linecap:butt;stroke-linejoin:miter;stroke-miterlimit:4;stroke-opacity:1;stroke-dasharray:none"
     d="m 55.043761,152.69071 10.70105,26.75262 M 116.898,307.3263 l 8.42717,21.06793"
     inkscape:connector-curvature="0"
     sodipodi:nodetypes="cccc" />
  <path
     id="path9638-20-1-5-4-1-8-26"
     style="opacity:0.5;fill:none;stroke:#ffff00;stroke-width:10;stroke-linecap:butt;stroke-linejoin:miter;stroke-miterlimit:4;stroke-opacity:1;stroke-dasharray:none"
     d="m 55.758313,183.27494 8.155331,24.46599 m 22.065931,66.1978 7.609538,22.82861"
     inkscape:connector-curvature="0"
     sodipodi:nodetypes="cccc" />
  <path
     id="path9638-2-3-8-7-4-9-1"
     style="opacity:0.5;fill:none;stroke:#0000ff;stroke-width:10;stroke-linecap:butt;stroke-linejoin:miter;stroke-miterlimit:4;stroke-opacity:1;stroke-dasharray:none"
     d="M 80.364795,310.21888 99.63521,321.78112 M 290.72959,190.43775 310,202" />
  <path
     id="path9638-20-1-5-4-2-1"
     style="opacity:0.5;fill:none;stroke:#00ff00;stroke-width:10;stroke-linecap:butt;stroke-linejoin:miter;stroke-miterlimit:4;stroke-opacity:1;stroke-dasharray:none"
     d="M 98.536106,308.6355 81.3516,322.38311 M 68.963546,218.22557 51.779038,231.97318" />
  <path
     inkscape:connector-curvature="0"
     id="path9638-20-7-6-9-2-0-4"
     style="opacity:0.5;fill:none;stroke:#ff0000;stroke-width:10;stroke-linecap:butt;stroke-linejoin:miter;stroke-miterlimit:4;stroke-opacity:1;stroke-dasharray:none"
     d="m 301.81081,215.73016 -4.34653,17.38614 m -25.08922,100.35684 -4.93771,19.75085"
     sodipodi:nodetypes="cccc" />
  <path
     inkscape:connector-curvature="0"
     id="path9638-20-7-6-9-2-9-3"
     style="opacity:0.5;fill:none;stroke:#00ffff;stroke-width:10;stroke-linecap:butt;stroke-linejoin:miter;stroke-miterlimit:4;stroke-opacity:1;stroke-dasharray:none"
     d="M 294.87875,249.903 310,262"
     sodipodi:nodetypes="cc" />
  <path
     id="path9638-20-1-5-4-1-6"
     style="opacity:0.5;fill:none;stroke:#ff00ff;stroke-width:10;stroke-linecap:butt;stroke-linejoin:miter;stroke-miterlimit:4;stroke-opacity:1;stroke-dasharray:none"
     d="M 301.79229,275.17035 297.62636,296"
     inkscape:connector-curvature="0"
     sodipodi:nodetypes="cc" />
  <path
     id="path9638-20-1-5-4-1-8-26-8"
     style="opacity:0.5;fill:none;stroke:#ffff00;stroke-width:10;stroke-linecap:butt;stroke-linejoin:miter;stroke-miterlimit:4;stroke-opacity:1;stroke-dasharray:none"
     d="M 58.68895,307.44475 62,324"
     inkscape:connector-curvature="0"
     sodipodi:nodetypes="cc" />
  <path
     inkscape:connector-curvature="0"
     id="path9638-2-3-8-7-4-0"
     style="opacity:0.5;fill:none;stroke:#0000ff;stroke-width:10;stroke-linecap:butt;stroke-linejoin:miter;stroke-miterlimit:4;stroke-opacity:1;stroke-dasharray:none"
     d="M 66.268655,337.27761 54,352"
     sodipodi:nodetypes="cc" />
</svg>
